<svg width="564" height="564" viewBox="0 0 564 564" fill="none" xmlns="http://www.w3.org/2000/svg">
<rect width="564" height="564" rx="68" fill="black"/>
<path d="M162.987 151.095H186.797V174.905H162.987V151.095ZM186.797 127.286H210.606V151.095H186.797V127.286ZM210.606 127.286H234.416V151.095H210.606V127.286ZM234.416 127.286H258.225V151.095H234.416V127.286ZM258.225 127.286H282.035V151.095H258.225V127.286ZM282.035 127.286H305.844V151.095H282.035V127.286ZM282.035 151.095H305.844V174.905H282.035V151.095ZM258.225 151.095H282.035V174.905H258.225V151.095ZM305.844 151.095H329.654V174.905H305.844V151.095ZM329.654 151.095H353.463V174.905H329.654V151.095ZM353.463 127.286H377.273V151.095H353.463V127.286ZM401.083 127.286H424.892V151.095H401.083V127.286ZM377.273 151.095H401.083V174.905H377.273V151.095ZM377.273 174.905H401.083V198.714H377.273V174.905ZM353.463 174.905H377.273V198.714H353.463V174.905ZM353.463 198.714H377.273V222.524H353.463V198.714ZM377.273 198.714H401.083V222.524H377.273V198.714ZM377.273 222.524H401.083V246.333H377.273V222.524ZM377.273 246.333H401.083V270.143H377.273V246.333ZM353.463 246.333H377.273V270.143H353.463V246.333ZM353.463 222.524H377.273V246.333H353.463V222.524ZM305.844 198.714H329.654V222.524H305.844V198.714ZM305.844 222.524H329.654V246.333H305.844V222.524ZM305.844 246.333H329.654V270.143H305.844V246.333ZM305.844 270.143H329.654V293.952H305.844V270.143ZM305.844 293.952H329.654V317.762H305.844V293.952ZM305.844 317.762H329.654V341.571H305.844V317.762ZM353.463 270.143H377.273V293.952H353.463V270.143ZM377.273 270.143H401.083V293.952H377.273V270.143ZM377.273 293.952H401.083V317.762H377.273V293.952ZM353.463 293.952H377.273V317.762H353.463V293.952ZM353.463 317.762H377.273V341.571H353.463V317.762ZM377.273 317.762H401.083V341.571H377.273V317.762ZM282.035 246.333H305.844V270.143H282.035V246.333ZM258.225 246.333H282.035V270.143H258.225V246.333ZM282.035 293.952H305.844V317.762H282.035V293.952ZM258.225 293.952H282.035V317.762H258.225V293.952ZM305.844 341.571H329.654V365.381H305.844V341.571ZM282.035 365.381H305.844V389.19H282.035V365.381ZM258.225 365.381H282.035V389.19H258.225V365.381ZM234.416 365.381H258.225V389.19H234.416V365.381ZM210.606 365.381H234.416V389.19H210.606V365.381ZM186.797 389.19H210.606V413H186.797V389.19ZM258.225 389.19H282.035V413H258.225V389.19ZM282.035 389.19H305.844V413H282.035V389.19ZM305.844 389.19H329.654V413H305.844V389.19ZM329.654 389.19H353.463V413H329.654V389.19ZM353.463 365.381H377.273V389.19H353.463V365.381ZM353.463 341.571H377.273V365.381H353.463V341.571ZM377.273 341.571H401.083V365.381H377.273V341.571Z" fill="#00FF00"/>
</svg>
