<svg width="157" height="157" viewBox="0 0 157 157" fill="none" xmlns="http://www.w3.org/2000/svg">
<path d="M99.4333 151.767H94.2C94.2 153.749 95.3199 155.561 97.0929 156.447C98.8659 157.334 100.988 157.142 102.573 155.953L99.4333 151.767ZM120.367 136.067L123.507 131.88C121.646 130.485 119.088 130.485 117.227 131.88L120.367 136.067ZM141.3 151.767L138.16 155.953C139.746 157.142 141.867 157.334 143.64 156.447C145.413 155.561 146.533 153.749 146.533 151.767H141.3ZM120.367 115.133C105.915 115.133 94.2 103.418 94.2 88.9667H83.7333C83.7333 109.199 100.135 125.6 120.367 125.6V115.133ZM146.533 88.9667C146.533 103.418 134.818 115.133 120.367 115.133V125.6C140.599 125.6 157 109.199 157 88.9667H146.533ZM120.367 62.8C134.818 62.8 146.533 74.5152 146.533 88.9667H157C157 68.7346 140.599 52.3333 120.367 52.3333V62.8ZM120.367 52.3333C100.135 52.3333 83.7333 68.7346 83.7333 88.9667H94.2C94.2 74.5152 105.915 62.8 120.367 62.8V52.3333ZM94.2 109.9V151.767H104.667V109.9H94.2ZM102.573 155.953L123.507 140.253L117.227 131.88L96.2933 147.58L102.573 155.953ZM117.227 140.253L138.16 155.953L144.44 147.58L123.507 131.88L117.227 140.253ZM146.533 151.767V109.9H136.067V151.767H146.533ZM157 52.3333V15.7H146.533V52.3333H157ZM141.3 0H15.7V10.4667H141.3V0ZM0 15.7V141.3H10.4667V15.7H0ZM15.7 157H83.7333V146.533H15.7V157ZM0 141.3C0 149.971 7.02913 157 15.7 157V146.533C12.8097 146.533 10.4667 144.19 10.4667 141.3H0ZM15.7 0C7.02914 0 0 7.02913 0 15.7H10.4667C10.4667 12.8097 12.8097 10.4667 15.7 10.4667V0ZM157 15.7C157 7.02913 149.971 0 141.3 0V10.4667C144.19 10.4667 146.533 12.8097 146.533 15.7H157ZM31.4 52.3333H83.7333V41.8667H31.4V52.3333ZM31.4 83.7333H62.8V73.2667H31.4V83.7333Z" fill="#00FF00"/>
</svg>
