<svg width="316" height="311" viewBox="0 0 316 311" fill="none" xmlns="http://www.w3.org/2000/svg">
<path fill-rule="evenodd" clip-rule="evenodd" d="M158.131 0C70.6885 0 0 71.2705 0 159.442C0 229.922 45.2926 289.582 108.125 310.697C115.981 312.285 118.859 307.267 118.859 303.046C118.859 299.349 118.6 286.679 118.6 273.478C74.6115 282.983 65.4514 254.471 65.4514 254.471C58.3822 235.993 47.9079 231.244 47.9079 231.244C33.5106 221.476 48.9566 221.476 48.9566 221.476C64.927 222.533 73.3071 237.843 73.3071 237.843C87.4422 262.127 110.22 255.265 119.383 251.041C120.691 240.745 124.882 233.618 129.333 229.66C94.2492 225.963 57.3367 212.237 57.3367 150.993C57.3367 133.571 63.6161 119.317 73.566 108.231C71.9962 104.272 66.4969 87.9025 75.1391 65.9933C75.1391 65.9933 88.4909 61.7689 118.596 82.3596C131.486 78.8695 144.778 77.094 158.131 77.0791C171.483 77.0791 185.093 78.9289 197.662 82.3596C227.771 61.7689 241.122 65.9933 241.122 65.9933C249.765 87.9025 244.262 104.272 242.692 108.231C252.904 119.317 258.925 133.571 258.925 150.993C258.925 212.237 222.012 225.698 186.666 229.66C192.428 234.674 197.4 244.176 197.4 259.224C197.4 280.605 197.141 297.765 197.141 303.042C197.141 307.267 200.021 312.285 207.874 310.701C270.707 289.579 315.999 229.922 315.999 159.442C316.258 71.2705 245.311 0 158.131 0Z" fill="white"/>
</svg>
