<svg width="311" height="311" viewBox="0 0 311 311" fill="none" xmlns="http://www.w3.org/2000/svg">
<path d="M230.124 178.705C229.518 178.414 206.845 167.249 202.816 165.799C201.171 165.209 199.409 164.632 197.535 164.632C194.474 164.632 191.902 166.158 189.899 169.155C187.634 172.521 180.778 180.536 178.659 182.93C178.383 183.246 178.005 183.623 177.779 183.623C177.576 183.623 174.067 182.178 173.005 181.717C148.683 171.152 130.222 145.746 127.691 141.462C127.329 140.846 127.314 140.566 127.311 140.566C127.4 140.24 128.218 139.42 128.64 138.997C129.875 137.775 131.213 136.165 132.507 134.606C133.12 133.868 133.734 133.129 134.337 132.433C136.215 130.247 137.051 128.551 138.02 126.586L138.528 125.565C140.895 120.863 138.873 116.895 138.22 115.613C137.684 114.541 128.111 91.4361 127.093 89.0086C124.645 83.1511 121.411 80.4238 116.917 80.4238C116.5 80.4238 116.917 80.4238 115.168 80.4975C113.038 80.5874 101.441 82.1141 96.3139 85.3463C90.8765 88.7744 81.6777 99.7018 81.6777 118.919C81.6777 136.215 92.6536 152.546 97.3661 158.756C97.4832 158.913 97.6983 159.231 98.0103 159.687C116.057 186.044 138.555 205.576 161.362 214.687C183.319 223.458 193.716 224.471 199.628 224.471H199.629C202.112 224.471 204.101 224.276 205.855 224.104L206.967 223.998C214.552 223.325 231.221 214.688 235.013 204.151C238 195.852 238.787 186.785 236.8 183.494C235.439 181.256 233.093 180.131 230.124 178.705Z" fill="#25D366"/>
<path d="M158.26 0C74.0319 0 5.50689 68.01 5.50689 151.605C5.50689 178.643 12.7427 205.11 26.4499 228.273L0.21383 305.665C-0.274884 307.107 0.0886226 308.703 1.15592 309.789C1.92635 310.576 2.97143 311 4.03873 311C4.44767 311 4.85964 310.938 5.26152 310.81L85.96 285.167C108.043 296.966 133.002 303.194 158.261 303.194C242.482 303.195 311 235.192 311 151.605C311 68.01 242.482 0 158.26 0ZM158.26 271.614C134.492 271.614 111.471 264.751 91.6821 251.766C91.0167 251.328 90.2443 251.104 89.4668 251.104C89.0558 251.104 88.6438 251.167 88.243 251.294L47.818 264.144L60.8679 225.644C61.29 224.398 61.0789 223.023 60.3014 221.961C45.2321 201.37 37.2662 177.043 37.2662 151.605C37.2662 85.424 91.5438 31.5806 158.259 31.5806C224.967 31.5806 279.238 85.424 279.238 151.605C279.239 217.779 224.969 271.614 158.26 271.614Z" fill="#25D366"/>
</svg>
